<?xml version="1.0" encoding="UTF-8"?>
<svg xmlns="http://www.w3.org/2000/svg" width="200" height="93" viewBox="0 0 582.19 270.38">
  <defs>
    <style>
      .cls-1 {
        stroke-width: 4px;
      }

      .cls-1, .cls-2, .cls-3, .cls-4, .cls-5 {
        fill: none;
        stroke: #1d1d1b;
        stroke-miterlimit: 10;
      }

      .cls-1, .cls-2, .cls-5 {
        stroke-linecap: round;
      }

      .cls-6 {
        fill: #1d1d1b;
        stroke-width: 0px;
      }

      .cls-2 {
        stroke-width: 12px;
      }

      .cls-3 {
        stroke-width: 16px;
      }

      .cls-4 {
        stroke-width: 18px;
      }

      .cls-5 {
        stroke-width: 5px;
      }
    </style>
  </defs>
  <g>
    <circle class="cls-3" cx="70.18" cy="49.47" r="21.25"/>
    <circle class="cls-3" cx="140.69" cy="89.53" r="21.25"/>
    <circle class="cls-3" cx="140.54" cy="170.72" r="21.25"/>
    <circle class="cls-4" cx="70.01" cy="131.96" r="29.34"/>
    <line class="cls-2" x1="94.94" y1="145.24" x2="123.54" y2="161.27"/>
    <line class="cls-2" x1="157.84" y1="180.48" x2="186.44" y2="196.5"/>
    <line class="cls-2" x1="88.5" y1="222.2" x2="117.1" y2="238.23"/>
    <line class="cls-2" x1="158.32" y1="99.73" x2="186.92" y2="115.75"/>
    <line class="cls-2" x1="87.79" y1="59.96" x2="116.39" y2="75.99"/>
    <path class="cls-1" d="M137.72,164.51c.88-.37,1.84-.58,2.85-.58"/>
    <path class="cls-1" d="M133.25,171.26c0-3.03,1.84-5.63,4.47-6.75"/>
    <path class="cls-1" d="M140.57,163.94c.95,0,1.85.18,2.69.51"/>
    <path class="cls-1" d="M138.72,83.09c.88-.37,1.84-.58,2.85-.58"/>
    <path class="cls-1" d="M134.25,89.84c0-3.03,1.84-5.63,4.47-6.75"/>
    <path class="cls-1" d="M141.57,82.52c.95,0,1.85.18,2.69.51"/>
    <path class="cls-1" d="M67.38,42.59c.88-.37,1.84-.58,2.85-.58"/>
    <path class="cls-1" d="M62.91,49.34c0-3.03,1.84-5.63,4.47-6.75"/>
    <path class="cls-1" d="M70.23,42.02c.95,0,1.85.18,2.69.51"/>
    <path class="cls-5" d="M62.75,120.89c1.12-.48,2.36-.74,3.66-.74"/>
    <path class="cls-5" d="M57.01,129.55c0-3.89,2.37-7.23,5.74-8.66"/>
    <path class="cls-5" d="M66.41,120.15c1.22,0,2.38.23,3.45.65"/>
    <path class="cls-3" d="M49.87,211.75c1.12-11.68,11.49-20.24,23.17-19.12,11.68,1.12,20.24,11.49,19.12,23.17-1.12,11.68-11.49,20.24-23.17,19.12-11.68-1.12-20.24-11.49-19.12-23.17"/>
    <path class="cls-1" d="M69.05,207.34c.88-.37,1.84-.58,2.85-.58"/>
    <path class="cls-1" d="M64.58,214.08c0-3.03,1.84-5.63,4.47-6.75"/>
    <path class="cls-1" d="M71.9,206.76c.95,0,1.85.18,2.69.51"/>
  </g>
  <g>
    <path class="cls-6" d="M211.01,86.53h15.62v46.75h4.62l16.28-24.64h18.48l-21.12,31.79,21.12,31.9h-18.37l-16.39-24.75h-4.62v24.75h-15.62v-85.8Z"/>
    <path class="cls-6" d="M272.28,94.01c0-1.17.31-2.49.93-3.96.62-1.47,1.74-2.73,3.36-3.79,1.61-1.06,3.34-1.59,5.17-1.59,1.17,0,2.51.31,4.01.93,1.5.62,2.79,1.72,3.85,3.3,1.06,1.58,1.6,3.28,1.6,5.11,0,2.57-.94,4.77-2.81,6.6-1.87,1.83-4.09,2.75-6.65,2.75s-4.79-.92-6.66-2.75c-1.87-1.83-2.8-4.03-2.8-6.6ZM273.93,108.64h15.62v63.69h-15.62v-63.69Z"/>
    <path class="cls-6" d="M370.29,140.43c0,2.2-.29,4.58-.88,7.15h-52.14c.88,3.37,3.06,6.33,6.54,8.86,3.48,2.53,7.39,3.79,11.71,3.79,2.42,0,4.79-.35,7.09-1.04,2.31-.7,4.14-1.61,5.5-2.75,1.36-1.14,2.33-2.22,2.92-3.25h16.5c-2.2,6.67-6.2,11.84-11.99,15.51-5.79,3.67-12.47,5.5-20.02,5.5-4.84,0-9.41-.84-13.7-2.53-4.29-1.69-8.03-4.07-11.22-7.15-3.19-3.08-5.67-6.69-7.42-10.83-1.76-4.14-2.64-8.56-2.64-13.26s.88-9.11,2.64-13.25c1.76-4.14,4.25-7.74,7.48-10.78,3.23-3.04,7-5.41,11.33-7.1,4.33-1.69,8.91-2.53,13.75-2.53,4.55,0,8.95.84,13.2,2.53,4.25,1.69,7.97,4.07,11.17,7.15,3.19,3.08,5.68,6.69,7.48,10.83,1.8,4.14,2.7,8.53,2.7,13.14ZM317.27,134.05h36.96c-.59-2.79-1.96-5.26-4.12-7.42-2.16-2.16-4.58-3.67-7.26-4.51-2.68-.84-5.04-1.27-7.09-1.27s-4.4.44-7.04,1.32c-2.64.88-5.06,2.42-7.26,4.62s-3.59,4.62-4.18,7.26Z"/>
    <path class="cls-6" d="M381.29,86.53h15.62v46.75h4.62l16.28-24.64h18.48l-21.12,31.79,21.12,31.9h-18.37l-16.39-24.75h-4.62v24.75h-15.62v-85.8Z"/>
  </g>
</svg>